<svg version="1.1" xmlns="http://www.w3.org/2000/svg" viewBox="0 0 2955.0000000000005 1612.4999999999995" width="2955.0000000000005" height="1612.4999999999995">
  <!-- svg-source:excalidraw -->
  
  <defs>
    <style class="style-fonts">
      @font-face {
        font-family: "Virgil";
        src: url("https://excalidraw.com/Virgil.woff2");
      }
      @font-face {
        font-family: "Cascadia";
        src: url("https://excalidraw.com/Cascadia.woff2");
      }
    </style>
  </defs>
  <rect x="0" y="0" width="2955.0000000000005" height="1612.4999999999995" fill="#ffffff"></rect><g stroke-opacity="0.2" fill-opacity="0.2" stroke-linecap="round" transform="translate(10 1352.5) rotate(0 1464.1666666666672 124.99999999999983)"><path d="M32 0 L2903.83 0.5 L2910.33 2 L2915.83 4.5 L2920.33 8 L2923.83 12.5 L2926.33 18 L2927.83 24.5 L2927.83 225.5 L2926.33 232 L2923.83 237.5 L2920.33 242 L2915.83 245.5 L2910.33 248 L2903.83 249.5 L2896.33 250 L24.5 249.5 L18 248 L12.5 245.5 L8 242 L4.5 237.5 L2 232 L0.5 225.5 L0 32 L0.5 24.5 L2 18 L4.5 12.5 L8 8 L12.5 4.5 L18 2 L24.5 0.5 L32 0" stroke="none" stroke-width="0" fill="#fab005"></path><path d="M32 0 M32 0 C846.9 0, 1661.8 0, 2896.33 0 M32 0 C1149.87 0, 2267.74 0, 2896.33 0 M2896.33 0 C2917.67 0, 2928.33 10.67, 2928.33 32 M2896.33 0 C2917.67 0, 2928.33 10.67, 2928.33 32 M2928.33 32 C2928.33 69.66, 2928.33 107.32, 2928.33 218 M2928.33 32 C2928.33 99.77, 2928.33 167.54, 2928.33 218 M2928.33 218 C2928.33 239.33, 2917.67 250, 2896.33 250 M2928.33 218 C2928.33 239.33, 2917.67 250, 2896.33 250 M2896.33 250 C1896.28 250, 896.23 250, 32 250 M2896.33 250 C2085.63 250, 1274.93 250, 32 250 M32 250 C10.67 250, 0 239.33, 0 218 M32 250 C10.67 250, 0 239.33, 0 218 M0 218 C0 168.42, 0 118.84, 0 32 M0 218 C0 170.42, 0 122.84, 0 32 M0 32 C0 10.67, 10.67 0, 32 0 M0 32 C0 10.67, 10.67 0, 32 0" stroke="#ffffff" stroke-width="4" fill="none"></path></g><g stroke-opacity="0.2" fill-opacity="0.2" stroke-linecap="round" transform="translate(11.666666666667425 1140.8333333333333) rotate(0 1463.3333333333335 100.83333333333326)"><path d="M32 0 L2894.67 0 L2902.17 0.5 L2908.67 2 L2914.17 4.5 L2918.67 8 L2922.17 12.5 L2924.67 18 L2926.17 24.5 L2926.67 169.67 L2926.17 177.17 L2924.67 183.67 L2922.17 189.17 L2918.67 193.67 L2914.17 197.17 L2908.67 199.67 L2902.17 201.17 L2894.67 201.67 L32 201.67 L24.5 201.17 L18 199.67 L12.5 197.17 L8 193.67 L4.5 189.17 L2 183.67 L0.5 177.17 L0 169.67 L0.5 24.5 L2 18 L4.5 12.5 L8 8 L12.5 4.5 L18 2 L24.5 0.5 L32 0" stroke="none" stroke-width="0" fill="#be4bdb"></path><path d="M32 0 M32 0 C1157.91 0, 2283.82 0, 2894.67 0 M32 0 C653.14 0, 1274.28 0, 2894.67 0 M2894.67 0 C2916 0, 2926.67 10.67, 2926.67 32 M2894.67 0 C2916 0, 2926.67 10.67, 2926.67 32 M2926.67 32 C2926.67 79.74, 2926.67 127.47, 2926.67 169.67 M2926.67 32 C2926.67 83.29, 2926.67 134.58, 2926.67 169.67 M2926.67 169.67 C2926.67 191, 2916 201.67, 2894.67 201.67 M2926.67 169.67 C2926.67 191, 2916 201.67, 2894.67 201.67 M2894.67 201.67 C2153.38 201.67, 1412.1 201.67, 32 201.67 M2894.67 201.67 C1859.89 201.67, 825.11 201.67, 32 201.67 M32 201.67 C10.67 201.67, 0 191, 0 169.67 M32 201.67 C10.67 201.67, 0 191, 0 169.67 M0 169.67 C0 130.5, 0 91.34, 0 32 M0 169.67 C0 131.03, 0 92.4, 0 32 M0 32 C0 10.67, 10.67 0, 32 0 M0 32 C0 10.67, 10.67 0, 32 0" stroke="#ffffff" stroke-width="4" fill="none"></path></g><g stroke-opacity="0.2" fill-opacity="0.2" stroke-linecap="round" transform="translate(16.66666666666697 853.3333333333333) rotate(0 1464.1666666666667 140.8333333333333)"><path d="M32 0 L2903.83 0.5 L2910.33 2 L2915.83 4.5 L2920.33 8 L2923.83 12.5 L2926.33 18 L2927.83 24.5 L2927.83 257.17 L2926.33 263.67 L2923.83 269.17 L2920.33 273.67 L2915.83 277.17 L2910.33 279.67 L2903.83 281.17 L2896.33 281.67 L24.5 281.17 L18 279.67 L12.5 277.17 L8 273.67 L4.5 269.17 L2 263.67 L0.5 257.17 L0 32 L0.5 24.5 L2 18 L4.5 12.5 L8 8 L12.5 4.5 L18 2 L24.5 0.5 L32 0" stroke="none" stroke-width="0" fill="#40c057"></path><path d="M32 0 M32 0 C658.3 0, 1284.6 0, 2896.33 0 M32 0 C606.73 0, 1181.46 0, 2896.33 0 M2896.33 0 C2917.67 0, 2928.33 10.67, 2928.33 32 M2896.33 0 C2917.67 0, 2928.33 10.67, 2928.33 32 M2928.33 32 C2928.33 111.45, 2928.33 190.89, 2928.33 249.67 M2928.33 32 C2928.33 108.17, 2928.33 184.34, 2928.33 249.67 M2928.33 249.67 C2928.33 271, 2917.67 281.67, 2896.33 281.67 M2928.33 249.67 C2928.33 271, 2917.67 281.67, 2896.33 281.67 M2896.33 281.67 C2270.63 281.67, 1644.93 281.67, 32 281.67 M2896.33 281.67 C1940.67 281.67, 985 281.67, 32 281.67 M32 281.67 C10.67 281.67, 0 271, 0 249.67 M32 281.67 C10.67 281.67, 0 271, 0 249.67 M0 249.67 C0 186.87, 0 124.08, 0 32 M0 249.67 C0 170.05, 0 90.44, 0 32 M0 32 C0 10.67, 10.67 0, 32 0 M0 32 C0 10.67, 10.67 0, 32 0" stroke="#ffffff" stroke-width="4" fill="none"></path></g><g stroke-opacity="0.2" fill-opacity="0.2" stroke-linecap="round" transform="translate(18.33333333333394 642.4999999999999) rotate(0 1458.333333333334 101.66666666666669)"><path d="M32 0 L2884.67 0 L2892.17 0.5 L2898.67 2 L2904.17 4.5 L2908.67 8 L2912.17 12.5 L2914.67 18 L2916.17 24.5 L2916.67 171.33 L2916.17 178.83 L2914.67 185.33 L2912.17 190.83 L2908.67 195.33 L2904.17 198.83 L2898.67 201.33 L2892.17 202.83 L2884.67 203.33 L32 203.33 L24.5 202.83 L18 201.33 L12.5 198.83 L8 195.33 L4.5 190.83 L2 185.33 L0.5 178.83 L0 171.33 L0.5 24.5 L2 18 L4.5 12.5 L8 8 L12.5 4.5 L18 2 L24.5 0.5 L32 0" stroke="none" stroke-width="0" fill="#15aabf"></path><path d="M32 0 M32 0 C1079.92 0, 2127.84 0, 2884.67 0 M32 0 C999.48 0, 1966.97 0, 2884.67 0 M2884.67 0 C2906 0, 2916.67 10.67, 2916.67 32 M2884.67 0 C2906 0, 2916.67 10.67, 2916.67 32 M2916.67 32 C2916.67 76.24, 2916.67 120.49, 2916.67 171.33 M2916.67 32 C2916.67 82.99, 2916.67 133.99, 2916.67 171.33 M2916.67 171.33 C2916.67 192.67, 2906 203.33, 2884.67 203.33 M2916.67 171.33 C2916.67 192.67, 2906 203.33, 2884.67 203.33 M2884.67 203.33 C2069.17 203.33, 1253.68 203.33, 32 203.33 M2884.67 203.33 C2272.36 203.33, 1660.06 203.33, 32 203.33 M32 203.33 C10.67 203.33, 0 192.67, 0 171.33 M32 203.33 C10.67 203.33, 0 192.67, 0 171.33 M0 171.33 C0 115.95, 0 60.57, 0 32 M0 171.33 C0 138.8, 0 106.27, 0 32 M0 32 C0 10.67, 10.67 0, 32 0 M0 32 C0 10.67, 10.67 0, 32 0" stroke="#ffffff" stroke-width="4" fill="none"></path></g><g stroke-opacity="0.2" fill-opacity="0.2" stroke-linecap="round" transform="translate(19.000000000001364 10) rotate(0 1451.6666666666665 312.49999999999994)"><path d="M32 0 L2878.83 0.5 L2885.33 2 L2890.83 4.5 L2895.33 8 L2898.83 12.5 L2901.33 18 L2902.83 24.5 L2903.33 32 L2902.83 600.5 L2901.33 607 L2898.83 612.5 L2895.33 617 L2890.83 620.5 L2885.33 623 L2878.83 624.5 L2871.33 625 L24.5 624.5 L18 623 L12.5 620.5 L8 617 L4.5 612.5 L2 607 L0.5 600.5 L0 593 L0 32 L0.5 24.5 L2 18 L4.5 12.5 L8 8 L12.5 4.5 L18 2 L24.5 0.5 L32 0" stroke="none" stroke-width="0" fill="#fa5252"></path><path d="M32 0 M32 0 C742.03 0, 1452.07 0, 2871.33 0 M32 0 C705 0, 1378 0, 2871.33 0 M2871.33 0 C2892.67 0, 2903.33 10.67, 2903.33 32 M2871.33 0 C2892.67 0, 2903.33 10.67, 2903.33 32 M2903.33 32 C2903.33 240.33, 2903.33 448.66, 2903.33 593 M2903.33 32 C2903.33 181.17, 2903.33 330.34, 2903.33 593 M2903.33 593 C2903.33 614.33, 2892.67 625, 2871.33 625 M2903.33 593 C2903.33 614.33, 2892.67 625, 2871.33 625 M2871.33 625 C1763.25 625, 655.18 625, 32 625 M2871.33 625 C2254.28 625, 1637.22 625, 32 625 M32 625 C10.67 625, 0 614.33, 0 593 M32 625 C10.67 625, 0 614.33, 0 593 M0 593 C0 379.75, 0 166.51, 0 32 M0 593 C0 385.7, 0 178.4, 0 32 M0 32 C0 10.67, 10.67 0, 32 0 M0 32 C0 10.67, 10.67 0, 32 0" stroke="#ffffff" stroke-width="4" fill="none"></path></g><g stroke-linecap="round" transform="translate(1087.773809523811 506.7023809523808) rotate(0 654.9999999999995 41)"><path d="M20.5 0 M20.5 0 C480.81 4.52, 942.02 4.53, 1289.5 0 M20.5 0 C389.32 4.28, 757.42 4.81, 1289.5 0 M1289.5 0 C1301.5 -0.72, 1309.48 8.83, 1310 20.5 M1289.5 0 C1302.76 0.04, 1308.19 8.54, 1310 20.5 M1310 20.5 C1307.79 37.11, 1310.83 50.14, 1310 61.5 M1310 20.5 C1310.47 34.21, 1310.03 49.47, 1310 61.5 M1310 61.5 C1310.94 75.25, 1305.04 81.38, 1289.5 82 M1310 61.5 C1311.8 74.48, 1303.63 80.58, 1289.5 82 M1289.5 82 C968.11 85.5, 647.07 85.4, 20.5 82 M1289.5 82 C1010.18 77.71, 731.41 78.03, 20.5 82 M20.5 82 C5.28 81.64, 0.15 74.49, 0 61.5 M20.5 82 C6.59 82.18, 0.75 74.18, 0 61.5 M0 61.5 C-1.27 46.09, 1.38 35.19, 0 20.5 M0 61.5 C0.69 48.57, 0.15 36.61, 0 20.5 M0 20.5 C1.1 7.38, 6.04 -1.39, 20.5 0 M0 20.5 C1.39 6.69, 6.23 -0.47, 20.5 0" stroke="#000000" stroke-width="4" fill="none"></path></g><g transform="translate(1137.273809523811 527.7023809523807) rotate(0 618 22.5)"><text x="618" y="32" font-family="Virgil, Segoe UI Emoji" font-size="36px" fill="#000000" text-anchor="middle" style="white-space: pre;" direction="ltr">helm install {{ release }} ./infra/rancher-clusters --set {{ values }}</text></g><g stroke-linecap="round"><g transform="translate(1688.1443691852917 604.7293257589865) rotate(0 -384.5091052374332 52.00298853882057)"><path d="M-0.54 -0.9 C-128.9 16.55, -641.32 87.41, -769.29 104.9 M1.38 1.25 C-127.24 18.31, -642.04 85.67, -770.4 102.99" stroke="#000000" stroke-width="4" fill="none"></path></g><g transform="translate(1688.1443691852917 604.7293257589865) rotate(0 -384.5091052374332 52.00298853882057)"><path d="M-745.3 88.59 C-753.05 95.21, -764.4 100.11, -770.26 104.22 M-744.77 89.31 C-753.52 95.13, -763.26 99.53, -770.08 102.29" stroke="#000000" stroke-width="4" fill="none"></path></g><g transform="translate(1688.1443691852917 604.7293257589865) rotate(0 -384.5091052374332 52.00298853882057)"><path d="M-742.6 108.93 C-751.4 107.94, -763.75 105.23, -770.26 104.22 M-742.08 109.65 C-752.02 107.93, -762.75 104.79, -770.08 102.29" stroke="#000000" stroke-width="4" fill="none"></path></g></g><mask></mask><g stroke-linecap="round"><g transform="translate(1736.8826741348848 604.391646489104) rotate(0 85.82353924153153 56.7806380730228)"><path d="M0.74 0.71 C29.29 19.42, 143.54 93.47, 171.98 112.29 M-0.33 0.04 C27.98 18.9, 141.9 94.9, 170.93 113.52" stroke="#000000" stroke-width="4" fill="none"></path></g><g transform="translate(1736.8826741348848 604.391646489104) rotate(0 85.82353924153153 56.7806380730228)"><path d="M142.92 106.31 C151.18 107.59, 163.89 113.07, 170.55 113.89 M142.35 106.9 C151.82 108.53, 159.89 110.1, 171.47 113.81" stroke="#000000" stroke-width="4" fill="none"></path></g><g transform="translate(1736.8826741348848 604.391646489104) rotate(0 85.82353924153153 56.7806380730228)"><path d="M154.18 89.16 C158.42 96.63, 167.11 108.23, 170.55 113.89 M153.61 89.74 C159.59 96.87, 164.05 103.94, 171.47 113.81" stroke="#000000" stroke-width="4" fill="none"></path></g></g><mask></mask><g stroke-linecap="round"><g transform="translate(1789.7870128439938 604.7245351861881) rotate(0 336.5513647592045 52.64581821865217)"><path d="M-1 -1.04 C111.49 16.8, 561.72 88.54, 674.1 106.33 M0.68 1.03 C113.13 18.61, 561.54 87.63, 673.49 104.72" stroke="#000000" stroke-width="4" fill="none"></path></g><g transform="translate(1789.7870128439938 604.7245351861881) rotate(0 336.5513647592045 52.64581821865217)"><path d="M642.34 111.66 C652.59 109.16, 658.41 108.27, 674.24 105.26 M643.23 110.07 C654.94 108.48, 663.59 106.43, 673.21 105.36" stroke="#000000" stroke-width="4" fill="none"></path></g><g transform="translate(1789.7870128439938 604.7245351861881) rotate(0 336.5513647592045 52.64581821865217)"><path d="M645.45 91.38 C654.85 93.59, 659.95 97.44, 674.24 105.26 M646.34 89.79 C657.17 95.09, 664.75 99.94, 673.21 105.36" stroke="#000000" stroke-width="4" fill="none"></path></g></g><mask></mask><g stroke-linecap="round" transform="translate(696.5166584150177 723.785714285714) rotate(0 214.83333333333314 32)"><path d="M16 0 M16 0 C106.09 1.03, 196.4 0.89, 413.67 0 M16 0 C137.16 0.69, 259.29 0.83, 413.67 0 M413.67 0 C423.09 -0.55, 429.6 5.14, 429.67 16 M413.67 0 C425.58 -0.96, 429.19 5.96, 429.67 16 M429.67 16 C428.36 27.16, 430.18 33.99, 429.67 48 M429.67 16 C429.36 26.03, 428.84 36.96, 429.67 48 M429.67 48 C431.59 60.42, 425.92 63.82, 413.67 64 M429.67 48 C427.63 57.24, 425.32 65.92, 413.67 64 M413.67 64 C264.97 62.73, 114.13 62.99, 16 64 M413.67 64 C310.64 64.62, 208.34 64.92, 16 64 M16 64 C5.26 62.46, -0.74 60.27, 0 48 M16 64 C5.28 62.48, -1.7 57.47, 0 48 M0 48 C-0.71 41.2, 0.39 34.16, 0 16 M0 48 C-0.22 36.23, -0.26 25.76, 0 16 M0 16 C-1 5.62, 6.81 -0.25, 16 0 M0 16 C-0.35 6.23, 7.14 1.08, 16 0" stroke="#000000" stroke-width="4" fill="none"></path></g><g transform="translate(704.1833250816842 732.4523809523807) rotate(0 200.5 22.5)"><text x="200.5" y="32" font-family="Virgil, Segoe UI Emoji" font-size="36px" fill="#000000" text-anchor="middle" style="white-space: pre;" direction="ltr">Create MGMT Cluster</text></g><g stroke-linecap="round" transform="translate(543.0833333333346 882.958333333333) rotate(0 151.5 34)"><path d="M17 0 M17 0 C77.83 -1.92, 139.74 0.11, 286 0 M17 0 C108.01 0.47, 200.08 0.31, 286 0 M286 0 C295.99 1.86, 302 6.58, 303 17 M286 0 C299.3 -1.16, 303.87 6.1, 303 17 M303 17 C302.8 27.94, 303.79 36.39, 303 51 M303 17 C304.14 28.56, 303.89 39.98, 303 51 M303 51 C302.44 64.05, 295.87 66.83, 286 68 M303 51 C301.87 61.49, 295.35 69.39, 286 68 M286 68 C178.61 66.34, 75.63 68.11, 17 68 M286 68 C228.22 67.82, 170.84 66.81, 17 68 M17 68 C7.51 68.68, 1.26 63.46, 0 51 M17 68 C7.27 69.54, 1.38 63.78, 0 51 M0 51 C2.15 44.68, 1.24 34.98, 0 17 M0 51 C-0.62 42.98, 0.36 35.96, 0 17 M0 17 C-1.2 5, 6.05 -1.06, 17 0 M0 17 C1.96 7.41, 7.26 0.71, 17 0" stroke="#000000" stroke-width="4" fill="none"></path></g><g transform="translate(573.0833333333346 894.458333333333) rotate(0 121.5 22.5)"><text x="121.5" y="32" font-family="Virgil, Segoe UI Emoji" font-size="36px" fill="#000000" text-anchor="middle" style="white-space: pre;" direction="ltr">External DNS</text></g><g stroke-linecap="round" transform="translate(869.6511863503662 871.2916666666663) rotate(0 159.99999999999994 67.5)"><path d="M33.75 0 M33.75 0 C128.76 -0.55, 221.23 1.42, 286.25 0 M33.75 0 C134.83 0.53, 234.71 -0.31, 286.25 0 M286.25 0 C309.38 0.06, 320.57 10.88, 320 33.75 M286.25 0 C308.62 1.56, 318.62 9.76, 320 33.75 M320 33.75 C321.64 50.54, 321.45 69.17, 320 101.25 M320 33.75 C320.2 52.36, 320 71.46, 320 101.25 M320 101.25 C320.64 124.68, 307.4 134.85, 286.25 135 M320 101.25 C318.46 125.44, 310.66 137.02, 286.25 135 M286.25 135 C197.96 137.7, 109.44 135.73, 33.75 135 M286.25 135 C186.63 134.46, 87.5 134.61, 33.75 135 M33.75 135 C10.06 133.97, -0.49 123.19, 0 101.25 M33.75 135 C11.52 132.86, 1.07 125.42, 0 101.25 M0 101.25 C-0.99 81.13, 1.6 60.14, 0 33.75 M0 101.25 C1.03 82.03, 0.71 63.36, 0 33.75 M0 33.75 C1.27 10.16, 11.15 1.29, 33.75 0 M0 33.75 C-0.68 10.19, 12.15 1.03, 33.75 0" stroke="#000000" stroke-width="4" fill="none"></path></g><g transform="translate(877.6511863503662 893.7916666666663) rotate(0 151.99999999999994 45)"><text x="152" y="32" font-family="Virgil, Segoe UI Emoji" font-size="36px" fill="#000000" text-anchor="middle" style="white-space: pre;" direction="ltr">External Secrets</text><text x="152" y="77" font-family="Virgil, Segoe UI Emoji" font-size="36px" fill="#000000" text-anchor="middle" style="white-space: pre;" direction="ltr">Operator</text></g><g stroke-linecap="round" transform="translate(809.8499917483512 1190.903368944731) rotate(0 151.5 50)"><path d="M25 0 M25 0 C118.4 -1.14, 211.6 -2.17, 278 0 M25 0 C125.46 -0.6, 225.68 -0.51, 278 0 M278 0 C296.42 -0.92, 301.4 6.51, 303 25 M278 0 C292.4 1.3, 301.32 6.5, 303 25 M303 25 C304.15 40.5, 303.91 57.23, 303 75 M303 25 C302.76 43.65, 302.26 62.46, 303 75 M303 75 C301.75 90.45, 294.26 99.09, 278 100 M303 75 C300.81 92.57, 292.56 102.28, 278 100 M278 100 C177.58 100.76, 78.84 100.57, 25 100 M278 100 C184.77 101.25, 91.26 100.69, 25 100 M25 100 C9.73 101.58, 0.67 93.51, 0 75 M25 100 C10.38 100.08, -1.68 91.87, 0 75 M0 75 C0.88 64.34, -1.45 53.15, 0 25 M0 75 C-0.81 63.92, -0.46 53.62, 0 25 M0 25 C0.42 8.8, 6.37 1.95, 25 0 M0 25 C2.08 8.79, 7.52 -0.39, 25 0" stroke="#000000" stroke-width="4" fill="none"></path></g><g transform="translate(861.8499917483512 1190.903368944731) rotate(0 99.5 45)"><text x="99.5" y="32" font-family="Virgil, Segoe UI Emoji" font-size="36px" fill="#000000" text-anchor="middle" style="white-space: pre;" direction="ltr">Gloo Mesh </text><text x="99.5" y="77" font-family="Virgil, Segoe UI Emoji" font-size="36px" fill="#000000" text-anchor="middle" style="white-space: pre;" direction="ltr">Enterprise</text></g><g stroke-linecap="round"><g transform="translate(901.0051360481989 793.2602857800736) rotate(0 66.23506879983881 33.40737135972327)"><path d="M0.97 0.19 C23.15 11.35, 110.5 55.44, 132.45 66.53 M0.02 -0.76 C22.04 10.56, 109.26 56.17, 131.21 67.58" stroke="#000000" stroke-width="4" fill="none"></path></g><g transform="translate(901.0051360481989 793.2602857800736) rotate(0 66.23506879983881 33.40737135972327)"><path d="M101.78 62.73 C107.33 63.85, 115.09 66.06, 130.74 69.08 M100.49 62.74 C109.88 64.63, 117.22 65.75, 131.44 68.3" stroke="#000000" stroke-width="4" fill="none"></path></g><g transform="translate(901.0051360481989 793.2602857800736) rotate(0 66.23506879983881 33.40737135972327)"><path d="M111.27 44.54 C114.38 50.28, 119.76 57.05, 130.74 69.08 M109.97 44.55 C116.88 51.27, 121.7 57.22, 131.44 68.3" stroke="#000000" stroke-width="4" fill="none"></path></g></g><mask></mask><g stroke-linecap="round"><g transform="translate(863.292703183822 797.1610169491523) rotate(0 -77.85994111246072 36.752986355122545)"><path d="M-0.95 0.14 C-26.84 12.34, -130.2 60.54, -156.1 72.7 M0.76 -0.83 C-25.14 11.63, -130.24 62.34, -156.48 74.33" stroke="#000000" stroke-width="4" fill="none"></path></g><g transform="translate(863.292703183822 797.1610169491523) rotate(0 -77.85994111246072 36.752986355122545)"><path d="M-135.12 54.84 C-140.21 59.36, -144.58 62.79, -155.6 74.69 M-134.56 52.97 C-139.99 58.26, -144.99 62.96, -156.56 74.86" stroke="#000000" stroke-width="4" fill="none"></path></g><g transform="translate(863.292703183822 797.1610169491523) rotate(0 -77.85994111246072 36.752986355122545)"><path d="M-126.36 73.4 C-133.49 73.39, -139.96 72.36, -155.6 74.69 M-125.81 71.53 C-133.09 72.65, -140.05 73.2, -156.56 74.86" stroke="#000000" stroke-width="4" fill="none"></path></g></g><mask></mask><g stroke-linecap="round" transform="translate(1110.2738095238115 214.85118357261547) rotate(0 195 45.71428571428571)"><path d="M22.86 0 M22.86 0 C140.58 -2.22, 257.45 -1.71, 367.14 0 M22.86 0 C130.95 -0.29, 239.57 -0.97, 367.14 0 M367.14 0 C382.85 1.09, 390.34 7.42, 390 22.86 M367.14 0 C383.79 -1.03, 390.19 9.02, 390 22.86 M390 22.86 C388.55 40.01, 388.39 58.05, 390 68.57 M390 22.86 C390.33 36.81, 390.92 50.74, 390 68.57 M390 68.57 C389.3 82.73, 383.93 92.89, 367.14 91.43 M390 68.57 C389.46 84.05, 382.04 92.9, 367.14 91.43 M367.14 91.43 C287.22 90.12, 207.49 89.73, 22.86 91.43 M367.14 91.43 C269.08 93.18, 170.25 92.03, 22.86 91.43 M22.86 91.43 C8.17 90.96, 1.32 85.42, 0 68.57 M22.86 91.43 C6.28 93.34, -1.01 85.57, 0 68.57 M0 68.57 C0.5 52.52, -0.44 38.03, 0 22.86 M0 68.57 C-0.34 54.78, 0.58 39.95, 0 22.86 M0 22.86 C-0.67 7.93, 8.64 -1.79, 22.86 0 M0 22.86 C-2.09 8.28, 5.86 1.04, 22.86 0" stroke="#000000" stroke-width="4" fill="none"></path></g><g transform="translate(1122.7738095238115 238.0654692869012) rotate(0 182.5 22.5)"><text x="182.5" y="32" font-family="Virgil, Segoe UI Emoji" font-size="36px" fill="#000000" text-anchor="middle" style="white-space: pre;" direction="ltr">Install Kube Janitor</text></g><g stroke-linecap="round"><g transform="translate(1311.0847418853473 324.37732175107067) rotate(0 189.11637113921995 87.85773784905622)"><path d="M-0.75 0.82 C62.29 30.19, 315.75 146.43, 378.98 175.52 M1.06 0.2 C63.93 29.32, 315.54 145.09, 378.36 173.96" stroke="#000000" stroke-width="4" fill="none"></path></g><g transform="translate(1311.0847418853473 324.37732175107067) rotate(0 189.11637113921995 87.85773784905622)"><path d="M349.82 172.54 C361.08 173.01, 371.58 171.64, 378.14 173.23 M348.37 171.41 C358.87 172.55, 370.77 172.6, 377.4 174.21" stroke="#000000" stroke-width="4" fill="none"></path></g><g transform="translate(1311.0847418853473 324.37732175107067) rotate(0 189.11637113921995 87.85773784905622)"><path d="M358.4 153.9 C366.44 161.08, 373.82 166.48, 378.14 173.23 M356.94 152.77 C364.13 161, 372.77 168.14, 377.4 174.21" stroke="#000000" stroke-width="4" fill="none"></path></g></g><mask></mask><g stroke-linecap="round" transform="translate(1653.7738095238115 725.4523809523807) rotate(0 233.16666666666674 28.66666666666663)"><path d="M14.33 0 M14.33 0 C162.68 1.43, 310.85 1.22, 452 0 M14.33 0 C167.98 0.31, 321.23 0.01, 452 0 M452 0 C460.62 1.25, 466.2 6.09, 466.33 14.33 M452 0 C462.19 -0.91, 465.44 5.66, 466.33 14.33 M466.33 14.33 C464.63 19.97, 466.22 25.02, 466.33 43 M466.33 14.33 C466.31 20.93, 466.15 26.5, 466.33 43 M466.33 43 C468.33 54.48, 462.43 56.34, 452 57.33 M466.33 43 C465.83 51.89, 460.13 55.05, 452 57.33 M452 57.33 C337.82 58.38, 223.01 58.57, 14.33 57.33 M452 57.33 C295.01 56.07, 138.04 56.63, 14.33 57.33 M14.33 57.33 C2.94 57.56, 1.28 52.81, 0 43 M14.33 57.33 C5.34 56.47, -1.14 51.71, 0 43 M0 43 C-1.58 33.81, -0.6 26.07, 0 14.33 M0 43 C0.34 36.5, -0.58 29.15, 0 14.33 M0 14.33 C-0.53 4.51, 3.04 1.46, 14.33 0 M0 14.33 C0.5 4.08, 4.33 0.99, 14.33 0" stroke="#000000" stroke-width="4" fill="none"></path></g><g transform="translate(1687.107142857145 729.1190476190473) rotate(0 206.5 22.5)"><text x="206.5" y="32" font-family="Virgil, Segoe UI Emoji" font-size="36px" fill="#000000" text-anchor="middle" style="white-space: pre;" direction="ltr">Create Worker1 Cluster</text></g><g stroke-linecap="round" transform="translate(2237.476190476192 723.785714285714) rotate(0 229.83333333333303 31.166666666666742)"><path d="M15.58 0 M15.58 0 C116.95 1.19, 220.45 1.12, 444.08 0 M15.58 0 C181.51 -1.56, 347.77 -1.51, 444.08 0 M444.08 0 C455.16 1.43, 457.83 5.43, 459.67 15.58 M444.08 0 C455.95 0.29, 460.22 4.33, 459.67 15.58 M459.67 15.58 C461.3 23.56, 458.22 30.27, 459.67 46.75 M459.67 15.58 C459.61 24.04, 459.95 34, 459.67 46.75 M459.67 46.75 C458.5 58.64, 453.94 62.06, 444.08 62.33 M459.67 46.75 C457.67 58.82, 454.97 61.64, 444.08 62.33 M444.08 62.33 C323.3 62.48, 203.46 64.12, 15.58 62.33 M444.08 62.33 C286.37 63.68, 129.22 63.47, 15.58 62.33 M15.58 62.33 C5.94 62.1, 0.38 56.56, 0 46.75 M15.58 62.33 C5.73 61.97, 0.99 55.17, 0 46.75 M0 46.75 C2.07 35.28, 0.06 23.62, 0 15.58 M0 46.75 C-0.33 36.46, -0.58 26.13, 0 15.58 M0 15.58 C0.71 4.51, 4.82 -1.84, 15.58 0 M0 15.58 C1.91 6.22, 6.54 0.49, 15.58 0" stroke="#000000" stroke-width="4" fill="none"></path></g><g transform="translate(2256.4761904761917 732.4523809523805) rotate(0 212.5 22.5)"><text x="212.5" y="32" font-family="Virgil, Segoe UI Emoji" font-size="36px" fill="#000000" text-anchor="middle" style="white-space: pre;" direction="ltr">Create WorkerX Cluster</text></g><g stroke-linecap="round" transform="translate(1556.9404761904773 51.84522428808805) rotate(0 195 45.71428571428572)"><path d="M22.86 0 M22.86 0 C148.82 0, 274.78 0, 367.14 0 M22.86 0 C158.65 0, 294.45 0, 367.14 0 M367.14 0 C382.38 0, 390 7.62, 390 22.86 M367.14 0 C382.38 0, 390 7.62, 390 22.86 M390 22.86 C390 37.83, 390 52.8, 390 68.57 M390 22.86 C390 32.95, 390 43.05, 390 68.57 M390 68.57 C390 83.81, 382.38 91.43, 367.14 91.43 M390 68.57 C390 83.81, 382.38 91.43, 367.14 91.43 M367.14 91.43 C253.54 91.43, 139.94 91.43, 22.86 91.43 M367.14 91.43 C280.91 91.43, 194.67 91.43, 22.86 91.43 M22.86 91.43 C7.62 91.43, 0 83.81, 0 68.57 M22.86 91.43 C7.62 91.43, 0 83.81, 0 68.57 M0 68.57 C0 53.02, 0 37.47, 0 22.86 M0 68.57 C0 58.18, 0 47.79, 0 22.86 M0 22.86 C0 7.62, 7.62 0, 22.86 0 M0 22.86 C0 7.62, 7.62 0, 22.86 0" stroke="#000000" stroke-width="4" fill="none"></path></g><g transform="translate(1613.9404761904773 75.05951000237377) rotate(0 138 22.5)"><text x="138" y="32" font-family="Virgil, Segoe UI Emoji" font-size="36px" fill="#000000" text-anchor="middle" style="white-space: pre;" direction="ltr">Install Rancher</text></g><g stroke-linecap="round"><g transform="translate(1755.0729069828867 151.36903381189757) rotate(0 0.27191899224783356 25.251263449181693)"><path d="M-0.24 -0.3 C-0.13 7.91, -0.27 41.93, -0.02 50.39 M-1.82 -1.5 C-1.26 7.43, 1.92 43.11, 2.36 52" stroke="#000000" stroke-width="4" fill="none"></path></g><g transform="translate(1755.0729069828867 151.36903381189757) rotate(0 0.27191899224783356 25.251263449181693)"><path d="M-8.4 28.03 C-4.9 35.81, -2.32 40.22, 4.35 53.96 M-8.48 29.47 C-4.8 36.74, -1.92 45.11, 3.26 52.45" stroke="#000000" stroke-width="4" fill="none"></path></g><g transform="translate(1755.0729069828867 151.36903381189757) rotate(0 0.27191899224783356 25.251263449181693)"><path d="M8.74 26.79 C8.02 34.85, 6.38 39.56, 4.35 53.96 M8.66 28.24 C6.63 35.88, 3.8 44.66, 3.26 52.45" stroke="#000000" stroke-width="4" fill="none"></path></g></g><mask></mask><g stroke-linecap="round"><g transform="translate(710.6497722013683 959.9999999999998) rotate(0 108.32640223545769 109.14204036000808)"><path d="M-1.19 0.69 C4.38 23.27, -1.92 99.49, 34.58 135.6 C71.09 171.71, 187.59 203.52, 217.85 217.34 M0.38 0.01 C5.71 22.68, -2.45 100.2, 33.76 136.57 C69.96 172.95, 187.23 204.39, 217.61 218.27" stroke="#000000" stroke-width="4" fill="none"></path></g><g transform="translate(710.6497722013683 959.9999999999998) rotate(0 108.32640223545769 109.14204036000808)"><path d="M188.76 218.63 C197.73 220.22, 210.19 217.41, 218.38 218.48 M186.75 218.55 C197.51 217.37, 206.12 218.58, 217.55 217.92" stroke="#000000" stroke-width="4" fill="none"></path></g><g transform="translate(710.6497722013683 959.9999999999998) rotate(0 108.32640223545769 109.14204036000808)"><path d="M195.8 199.35 C202 208.53, 211.67 213.37, 218.38 218.48 M193.79 199.28 C202.47 203.9, 208.96 210.87, 217.55 217.92" stroke="#000000" stroke-width="4" fill="none"></path></g></g><mask></mask><g stroke-linecap="round"><g transform="translate(1012.8231073630355 1124.4928149563923) rotate(0 -21.654031833831198 25.030639888405517)"><path d="M1.07 1.11 C-6.2 9.42, -36.92 41.51, -44.38 49.42 M0.17 0.64 C-6.66 8.66, -34.71 39.53, -42.17 47.73" stroke="#000000" stroke-width="4" fill="none"></path></g><g transform="translate(1012.8231073630355 1124.4928149563923) rotate(0 -21.654031833831198 25.030639888405517)"><path d="M-28.97 18.35 C-32.21 26.13, -36.3 31.32, -41.35 47.88 M-29.89 20.39 C-34.69 27.63, -37.54 35.58, -41.94 46.76" stroke="#000000" stroke-width="4" fill="none"></path></g><g transform="translate(1012.8231073630355 1124.4928149563923) rotate(0 -21.654031833831198 25.030639888405517)"><path d="M-13.78 32.15 C-20.53 36.83, -28.18 38.78, -41.35 47.88 M-14.7 34.19 C-23.63 37.53, -30.7 41.64, -41.94 46.76" stroke="#000000" stroke-width="4" fill="none"></path></g></g><mask></mask><g stroke-linecap="round" transform="translate(1364.651186350366 1437.0327377478263) rotate(0 151.5 34)"><path d="M17 0 M17 0 C120.32 2.39, 226.44 1.56, 286 0 M17 0 C75.44 1.12, 133.16 2.52, 286 0 M286 0 C297.1 -1.3, 303.21 5.69, 303 17 M286 0 C296.84 0.95, 304.87 5.3, 303 17 M303 17 C304.89 29.34, 302.23 41.09, 303 51 M303 17 C302.54 29.18, 303.42 40.94, 303 51 M303 51 C303.62 60.97, 297.07 67.88, 286 68 M303 51 C304.23 61.76, 295.52 67.7, 286 68 M286 68 C208.02 68.52, 131.22 69.74, 17 68 M286 68 C191.48 66.79, 96.18 67.19, 17 68 M17 68 C6.44 67.08, -0.33 60.44, 0 51 M17 68 C7.51 69.68, -2.02 63.71, 0 51 M0 51 C1.38 43.55, -1.09 33.97, 0 17 M0 51 C-0.26 39.25, -0.98 27.46, 0 17 M0 17 C-1.4 5.05, 5.74 0.58, 17 0 M0 17 C1.74 3.93, 6.08 1.26, 17 0" stroke="#000000" stroke-width="4" fill="none"></path></g><g transform="translate(1398.151186350366 1448.5327377478263) rotate(0 118 22.5)"><text x="118" y="32" font-family="Virgil, Segoe UI Emoji" font-size="36px" fill="#000000" text-anchor="middle" style="white-space: pre;" direction="ltr">Push Secrets</text></g><g stroke-linecap="round"><g transform="translate(1045.6274928016576 1287.729109234031) rotate(0 215.9831361501615 69.464106534738)"><path d="M-0.52 -0.94 C71.69 22.4, 360.13 116.6, 432.49 139.87 M1.4 1.17 C73.52 24.23, 359.5 115.21, 431.51 138.34" stroke="#000000" stroke-width="4" fill="none"></path></g><g transform="translate(1045.6274928016576 1287.729109234031) rotate(0 215.9831361501615 69.464106534738)"><path d="M399.96 139.44 C410.45 141.21, 415.49 140.66, 431.84 137.15 M400.85 139.1 C410.69 138.37, 419.09 138.34, 431.18 139.17" stroke="#000000" stroke-width="4" fill="none"></path></g><g transform="translate(1045.6274928016576 1287.729109234031) rotate(0 215.9831361501615 69.464106534738)"><path d="M406.21 119.89 C415.19 126.23, 418.76 130.28, 431.84 137.15 M407.09 119.55 C414.96 124.84, 421.43 130.83, 431.18 139.17" stroke="#000000" stroke-width="4" fill="none"></path></g></g><mask></mask><g stroke-linecap="round"><g transform="translate(2460.6983738053436 790.2097999694878) rotate(0 -31.846976501026347 40.20803803857032)"><path d="M-1.14 -0.62 C-11.79 12.44, -52.87 66.22, -63.35 79.5 M0.46 1.67 C-10.37 15.44, -53.24 67.95, -64.15 81.03" stroke="#000000" stroke-width="4" fill="none"></path></g><g transform="translate(2460.6983738053436 790.2097999694878) rotate(0 -31.846976501026347 40.20803803857032)"><path d="M-55.19 53.21 C-57.36 61.79, -61.49 71.21, -62.7 80.41 M-54.79 52.44 C-58.07 62.5, -61.15 69.91, -63.77 80.44" stroke="#000000" stroke-width="4" fill="none"></path></g><g transform="translate(2460.6983738053436 790.2097999694878) rotate(0 -31.846976501026347 40.20803803857032)"><path d="M-39.35 66.25 C-47.13 70.16, -56.74 75.08, -62.7 80.41 M-38.95 65.48 C-47.04 71.66, -54.98 75.07, -63.77 80.44" stroke="#000000" stroke-width="4" fill="none"></path></g></g><mask></mask><g stroke-linecap="round" transform="translate(1525.940476190478 881.2916666666665) rotate(0 178.5 59.5)"><path d="M29.75 0 M29.75 0 C110.12 -0.11, 190.69 1.21, 327.25 0 M29.75 0 C124.24 1.36, 218.31 2.44, 327.25 0 M327.25 0 C346.84 0.47, 357.78 10.39, 357 29.75 M327.25 0 C346.01 -1.11, 356.71 9.91, 357 29.75 M357 29.75 C357.77 47.22, 358.38 61.11, 357 89.25 M357 29.75 C358.02 49.56, 357.58 69.06, 357 89.25 M357 89.25 C355.6 110.48, 345.29 120.38, 327.25 119 M357 89.25 C355.28 108.58, 345.8 118.11, 327.25 119 M327.25 119 C213.71 117.15, 100.85 117.05, 29.75 119 M327.25 119 C224.46 118.74, 120.62 118.75, 29.75 119 M29.75 119 C9.46 118.85, 1.89 109.34, 0 89.25 M29.75 119 C10.62 117.66, 1.4 109.53, 0 89.25 M0 89.25 C-0.59 72.96, -0.26 53.01, 0 29.75 M0 89.25 C-0.37 73.82, -0.53 60.86, 0 29.75 M0 29.75 C1.63 10.31, 8.71 1.95, 29.75 0 M0 29.75 C-1.28 11.43, 11.56 -1.17, 29.75 0" stroke="#000000" stroke-width="4" fill="none"></path></g><g transform="translate(1543.440476190478 895.7916666666665) rotate(0 161 45)"><text x="161" y="32" font-family="Virgil, Segoe UI Emoji" font-size="36px" fill="#000000" text-anchor="middle" style="white-space: pre;" direction="ltr">External Secrets </text><text x="161" y="77" font-family="Virgil, Segoe UI Emoji" font-size="36px" fill="#000000" text-anchor="middle" style="white-space: pre;" direction="ltr">Operator</text></g><g stroke-linecap="round" transform="translate(2249.1428571428587 879.6249999999998) rotate(0 161 58.5)"><path d="M29.25 0 M29.25 0 C108.1 -0.85, 183.29 0.93, 292.75 0 M29.25 0 C114.26 1.68, 198.26 1.02, 292.75 0 M292.75 0 C312.72 -1.74, 323.61 7.84, 322 29.25 M292.75 0 C311.87 0.21, 323.62 9.23, 322 29.25 M322 29.25 C321.15 49.13, 322.05 63.93, 322 87.75 M322 29.25 C323.25 51.36, 322.62 73.78, 322 87.75 M322 87.75 C320.22 105.32, 313.61 115, 292.75 117 M322 87.75 C322.63 106.18, 314.48 117.67, 292.75 117 M292.75 117 C186.96 115.54, 83.47 116.01, 29.25 117 M292.75 117 C211.37 117.24, 129.94 117.4, 29.25 117 M29.25 117 C11.23 115.41, 1.51 105.72, 0 87.75 M29.25 117 C11.3 117.55, -1.81 105.13, 0 87.75 M0 87.75 C0.86 71.13, -0.86 50.89, 0 29.25 M0 87.75 C0.93 75.84, 0.98 62.37, 0 29.25 M0 29.25 C0.05 10.29, 9.66 -1.1, 29.25 0 M0 29.25 C-1.61 11.26, 10.54 -2.22, 29.25 0" stroke="#000000" stroke-width="4" fill="none"></path></g><g transform="translate(2258.1428571428587 893.1249999999998) rotate(0 152 45)"><text x="152" y="32" font-family="Virgil, Segoe UI Emoji" font-size="36px" fill="#000000" text-anchor="middle" style="white-space: pre;" direction="ltr">External Secrets</text><text x="152" y="77" font-family="Virgil, Segoe UI Emoji" font-size="36px" fill="#000000" text-anchor="middle" style="white-space: pre;" direction="ltr">Operator</text></g><g stroke-linecap="round" transform="translate(1557.940476190478 1037.570035611398) rotate(0 151.5 50)"><path d="M25 0 M25 0 C121.68 -0.2, 216.59 0.41, 278 0 M25 0 C85.38 -0.19, 145.67 0.01, 278 0 M278 0 C296.3 -0.81, 303.84 9.45, 303 25 M278 0 C294.93 1.28, 302.66 9.69, 303 25 M303 25 C304.14 39.19, 300.88 53.34, 303 75 M303 25 C303.35 44, 302.72 64.18, 303 75 M303 75 C304.82 93.09, 293.59 99.36, 278 100 M303 75 C302.49 90.81, 296.13 98.55, 278 100 M278 100 C196.3 98.81, 114.37 100.87, 25 100 M278 100 C204.9 100.21, 130.78 100.01, 25 100 M25 100 C6.74 101.49, -1.9 91.92, 0 75 M25 100 C10.29 100.27, -1.63 90.03, 0 75 M0 75 C-0.69 61.92, 0.56 48.48, 0 25 M0 75 C1.17 60.13, -0.4 45.75, 0 25 M0 25 C-0.29 9.84, 7.52 0.2, 25 0 M0 25 C-0.7 9.92, 7.9 1.79, 25 0" stroke="#000000" stroke-width="4" fill="none"></path></g><g transform="translate(1624.940476190478 1037.570035611398) rotate(0 84.5 45)"><text x="84.5" y="32" font-family="Virgil, Segoe UI Emoji" font-size="36px" fill="#000000" text-anchor="middle" style="white-space: pre;" direction="ltr">External </text><text x="84.5" y="77" font-family="Virgil, Segoe UI Emoji" font-size="36px" fill="#000000" text-anchor="middle" style="white-space: pre;" direction="ltr">Secrets</text></g><g stroke-linecap="round"><g transform="translate(1715.9111943540902 1007.3773335063333) rotate(0 -0.9516594524677657 14.014791209753923)"><path d="M-0.09 -0.35 C-0.27 4.32, -0.88 23.46, -1.03 28.45 M-1.6 -1.57 C-1.91 3.19, -1.8 24.75, -1.79 29.6" stroke="#000000" stroke-width="4" fill="none"></path></g><g transform="translate(1715.9111943540902 1007.3773335063333) rotate(0 -0.9516594524677657 14.014791209753923)"><path d="M-7.24 16.32 C-6.14 20.55, -3.17 24.36, -0.75 29.71 M-6.52 16.29 C-4.64 21.73, -2.85 27.17, -1.91 29.14" stroke="#000000" stroke-width="4" fill="none"></path></g><g transform="translate(1715.9111943540902 1007.3773335063333) rotate(0 -0.9516594524677657 14.014791209753923)"><path d="M2.75 16.3 C0.82 20.52, 0.75 24.34, -0.75 29.71 M3.48 16.26 C1.41 21.67, -0.74 27.12, -1.91 29.14" stroke="#000000" stroke-width="4" fill="none"></path></g></g><mask></mask><g stroke-linecap="round" transform="translate(2259.1428571428582 1039.2367022780645) rotate(0 151.5 50)"><path d="M25 0 M25 0 C110.44 -0.21, 196.99 -1.85, 278 0 M25 0 C90.26 -0.45, 155.04 0.23, 278 0 M278 0 C295.25 -0.66, 302.23 8.81, 303 25 M278 0 C295.45 0.4, 303.54 10.36, 303 25 M303 25 C302.79 41.85, 302.66 56.57, 303 75 M303 25 C302.48 43.81, 303.43 60.84, 303 75 M303 75 C301.02 92.55, 294.96 99.35, 278 100 M303 75 C305.23 89.6, 295.21 99.9, 278 100 M278 100 C208.55 98.74, 136.16 98.56, 25 100 M278 100 C220.26 101.6, 162.8 100.46, 25 100 M25 100 C6.4 101.72, -1.15 93.31, 0 75 M25 100 C9.53 98.44, 0.09 92.82, 0 75 M0 75 C-1.54 57.55, -0.9 39.09, 0 25 M0 75 C-1.06 63.6, -0.62 53.23, 0 25 M0 25 C-1.64 10.31, 6.51 1.99, 25 0 M0 25 C1.83 6.27, 10.4 -1.32, 25 0" stroke="#000000" stroke-width="4" fill="none"></path></g><g transform="translate(2326.1428571428582 1039.2367022780645) rotate(0 84.5 45)"><text x="84.5" y="32" font-family="Virgil, Segoe UI Emoji" font-size="36px" fill="#000000" text-anchor="middle" style="white-space: pre;" direction="ltr">External </text><text x="84.5" y="77" font-family="Virgil, Segoe UI Emoji" font-size="36px" fill="#000000" text-anchor="middle" style="white-space: pre;" direction="ltr">Secrets</text></g><g stroke-linecap="round" transform="translate(1773.5000000000018 1211.0000000000002) rotate(0 151.5 50)"><path d="M25 0 M25 0 C117.41 1.56, 208.71 -0.01, 278 0 M25 0 C80.76 2.19, 136.94 1.54, 278 0 M278 0 C296.07 0.97, 303.1 8.46, 303 25 M278 0 C295.28 -1.72, 304.44 6.22, 303 25 M303 25 C302.81 35.27, 304.51 50.35, 303 75 M303 25 C303.43 35.98, 302.9 45.5, 303 75 M303 75 C304.44 90.17, 294.1 100.81, 278 100 M303 75 C304.6 90.58, 292.79 100.54, 278 100 M278 100 C213.78 100.8, 149.62 100.7, 25 100 M278 100 C188.26 100.9, 96.65 101.55, 25 100 M25 100 C9.21 100.05, 0.92 93.64, 0 75 M25 100 C8.52 100.14, -2.25 92.83, 0 75 M0 75 C-0.54 60.18, 1.19 50.6, 0 25 M0 75 C1.08 58.39, 0.45 43.01, 0 25 M0 25 C0.63 9.5, 9.99 -0.79, 25 0 M0 25 C0.86 9.12, 10.15 1.78, 25 0" stroke="#000000" stroke-width="4" fill="none"></path></g><g transform="translate(1808.0000000000018 1211.0000000000002) rotate(0 117 45)"><text x="117" y="32" font-family="Virgil, Segoe UI Emoji" font-size="36px" fill="#000000" text-anchor="middle" style="white-space: pre;" direction="ltr">Install Gloo </text><text x="117" y="77" font-family="Virgil, Segoe UI Emoji" font-size="36px" fill="#000000" text-anchor="middle" style="white-space: pre;" direction="ltr">Mesh Agent</text></g><g stroke-linecap="round" transform="translate(731.4166666666683 1361.1994044144926) rotate(0 262 115.00000000000006)"><path d="M57.5 0 M57.5 0 C187.69 1.12, 317.71 0.23, 466.5 0 M57.5 0 C184.95 -2.41, 312.97 -2.32, 466.5 0 M466.5 0 C506.82 1.51, 524.83 18.06, 524 57.5 M466.5 0 C506.07 -2.1, 525.15 20.95, 524 57.5 M524 57.5 C524.25 85.91, 522.68 116.28, 524 172.5 M524 57.5 C525.46 101.9, 525.69 145.74, 524 172.5 M524 172.5 C524.33 210.83, 505.49 230.25, 466.5 230 M524 172.5 C525.17 212.19, 504.8 229.99, 466.5 230 M466.5 230 C367.47 230.17, 266.73 230.93, 57.5 230 M466.5 230 C369.54 232.03, 272.74 232.3, 57.5 230 M57.5 230 C19.84 229.8, -0.24 212.03, 0 172.5 M57.5 230 C18.52 228.35, 0.79 210.78, 0 172.5 M0 172.5 C2.97 128.28, -0.83 83.6, 0 57.5 M0 172.5 C-0.7 141.32, -1.45 110.85, 0 57.5 M0 57.5 C-1.99 20.19, 18.44 0.52, 57.5 0 M0 57.5 C-1.16 17.29, 17.68 1.64, 57.5 0" stroke="#000000" stroke-width="4" fill="none"></path></g><g transform="translate(809.4166666666683 1386.1994044144926) rotate(0 184 90.00000000000006)"><text x="184" y="32" font-family="Virgil, Segoe UI Emoji" font-size="36px" fill="#000000" text-anchor="middle" style="white-space: pre;" direction="ltr">KubernetesCluster(s)</text><text x="184" y="77" font-family="Virgil, Segoe UI Emoji" font-size="36px" fill="#000000" text-anchor="middle" style="white-space: pre;" direction="ltr">RootTrustPolicy</text><text x="184" y="122" font-family="Virgil, Segoe UI Emoji" font-size="36px" fill="#000000" text-anchor="middle" style="white-space: pre;" direction="ltr">IstioLifecycle</text><text x="184" y="167" font-family="Virgil, Segoe UI Emoji" font-size="36px" fill="#000000" text-anchor="middle" style="white-space: pre;" direction="ltr">GatewayLifecycle(s)</text></g><g stroke-linecap="round"><g transform="translate(958.8972960658839 1285.3945635853304) rotate(0 0.0482753826941007 29.5190835190636)"><path d="M0.11 0.13 C0.05 9.82, -0.82 48.43, -0.87 58.27 M-1.29 -0.85 C-0.92 9.04, 1.35 50.19, 1.39 59.88" stroke="#000000" stroke-width="4" fill="none"></path></g><g transform="translate(958.8972960658839 1285.3945635853304) rotate(0 0.0482753826941007 29.5190835190636)"><path d="M-9.25 31.49 C-6.42 39.5, -2.2 45.4, -0.42 59.45 M-9.06 32.37 C-6.21 38.03, -3.79 45.82, 1.02 60.25" stroke="#000000" stroke-width="4" fill="none"></path></g><g transform="translate(958.8972960658839 1285.3945635853304) rotate(0 0.0482753826941007 29.5190835190636)"><path d="M10.61 30.82 C8.38 39.01, 7.54 45.08, -0.42 59.45 M10.81 31.7 C9.17 37.66, 7.09 45.6, 1.02 60.25" stroke="#000000" stroke-width="4" fill="none"></path></g></g><mask></mask><g stroke-linecap="round" transform="translate(2408.500000000002 1212.6666666666667) rotate(0 151.5 50)"><path d="M25 0 M25 0 C82.78 -0.2, 135.92 -0.25, 278 0 M25 0 C114.94 -0.73, 205.65 -1.24, 278 0 M278 0 C293.63 0.31, 303.94 6.87, 303 25 M278 0 C295.73 1.78, 303.62 6.43, 303 25 M303 25 C303.82 39.28, 301.26 54.95, 303 75 M303 25 C302.28 36.46, 303.05 48.72, 303 75 M303 75 C304.1 93.28, 294.59 100.79, 278 100 M303 75 C304.36 91.61, 295.39 101.92, 278 100 M278 100 C193.78 101.7, 111.89 101.52, 25 100 M278 100 C207.71 99.09, 137.14 98.11, 25 100 M25 100 C9.08 101.51, 0.75 89.77, 0 75 M25 100 C6.59 101.82, -0.32 89.58, 0 75 M0 75 C-0.39 58.96, 1.7 42.37, 0 25 M0 75 C-0.7 54.44, -0.97 35.03, 0 25 M0 25 C-0.8 6.73, 9.82 -1.72, 25 0 M0 25 C-1.94 7.18, 9.88 0.68, 25 0" stroke="#000000" stroke-width="4" fill="none"></path></g><g transform="translate(2460.500000000002 1212.6666666666667) rotate(0 99.5 45)"><text x="99.5" y="32" font-family="Virgil, Segoe UI Emoji" font-size="36px" fill="#000000" text-anchor="middle" style="white-space: pre;" direction="ltr">Gloo Mesh </text><text x="99.5" y="77" font-family="Virgil, Segoe UI Emoji" font-size="36px" fill="#000000" text-anchor="middle" style="white-space: pre;" direction="ltr">Agent</text></g><g stroke-linecap="round"><g transform="translate(2418.5063755062038 1139.6549951107063) rotate(0 60.56377315987925 29.256498438117205)"><path d="M-0.96 0.89 C19.08 10.5, 99.7 47.51, 119.92 57.19 M0.73 0.31 C21.17 10.09, 102.33 48.74, 122.09 58.2" stroke="#000000" stroke-width="4" fill="none"></path></g><g transform="translate(2418.5063755062038 1139.6549951107063) rotate(0 60.56377315987925 29.256498438117205)"><path d="M93.72 53.6 C98.66 55.34, 109.83 57.71, 122.12 56.58 M91.72 55.21 C102.39 56.2, 111.47 56.42, 122.99 58.21" stroke="#000000" stroke-width="4" fill="none"></path></g><g transform="translate(2418.5063755062038 1139.6549951107063) rotate(0 60.56377315987925 29.256498438117205)"><path d="M102.56 35.08 C105.02 41.79, 113.78 49.21, 122.12 56.58 M100.57 36.69 C108.18 43.72, 114.39 49.96, 122.99 58.21" stroke="#000000" stroke-width="4" fill="none"></path></g></g><mask></mask><g stroke-linecap="round"><g transform="translate(1745.8578898037017 1135.728995606848) rotate(0 70.332059785674 32.85707962556086)"><path d="M-1.03 1.2 C22.74 11.68, 118.11 53.35, 141.7 63.8 M0.62 0.78 C24.36 11.32, 117.26 54.26, 140.98 64.93" stroke="#000000" stroke-width="4" fill="none"></path></g><g transform="translate(1745.8578898037017 1135.728995606848) rotate(0 70.332059785674 32.85707962556086)"><path d="M113.07 63.28 C116.43 62.03, 123.15 64.12, 141.24 64.69 M111.16 63.42 C118.56 62.78, 124.27 63.09, 140.02 64.6" stroke="#000000" stroke-width="4" fill="none"></path></g><g transform="translate(1745.8578898037017 1135.728995606848) rotate(0 70.332059785674 32.85707962556086)"><path d="M121.59 44.62 C123.21 47.42, 128.05 53.63, 141.24 64.69 M119.68 44.75 C125.23 48.46, 128.99 53.03, 140.02 64.6" stroke="#000000" stroke-width="4" fill="none"></path></g></g><mask></mask><g stroke-linecap="round"><g transform="translate(1870.150951663152 787.3263107390934) rotate(0 -69.09237064341141 45.54863974735986)"><path d="M0.39 0.86 C-22.36 16.18, -114.51 76.12, -137.4 90.84 M-0.86 0.26 C-23.73 15.38, -115.77 74.32, -138.58 89.31" stroke="#000000" stroke-width="4" fill="none"></path></g><g transform="translate(1870.150951663152 787.3263107390934) rotate(0 -69.09237064341141 45.54863974735986)"><path d="M-119.07 64.64 C-122.9 70.83, -129.8 74.8, -140.24 88.72 M-120.83 65.03 C-125.69 71.5, -129.09 78.8, -139.57 88.43" stroke="#000000" stroke-width="4" fill="none"></path></g><g transform="translate(1870.150951663152 787.3263107390934) rotate(0 -69.09237064341141 45.54863974735986)"><path d="M-107.91 81.86 C-114.1 84.22, -123.51 84.3, -140.24 88.72 M-109.68 82.25 C-117.52 84.28, -123.87 87.02, -139.57 88.43" stroke="#000000" stroke-width="4" fill="none"></path></g></g><mask></mask><g stroke-linecap="round" transform="translate(1563.3333333333358 214.85118357261547) rotate(0 195 45.71428571428571)"><path d="M22.86 0 M22.86 0 C133.49 -2.88, 241.22 -2.05, 367.14 0 M22.86 0 C101.15 1.6, 179.34 1.82, 367.14 0 M367.14 0 C381.04 -0.11, 390.11 9.21, 390 22.86 M367.14 0 C383.74 -0.19, 390.99 7.89, 390 22.86 M390 22.86 C389.59 31.23, 390.94 41.71, 390 68.57 M390 22.86 C390.55 40.09, 390.52 56.26, 390 68.57 M390 68.57 C388.3 83.99, 382 92.97, 367.14 91.43 M390 68.57 C390.72 84.84, 384.42 93.06, 367.14 91.43 M367.14 91.43 C231.9 91.72, 100.51 90.53, 22.86 91.43 M367.14 91.43 C288.82 92.21, 211.03 91.9, 22.86 91.43 M22.86 91.43 C5.63 89.73, 1.13 83.02, 0 68.57 M22.86 91.43 C9.73 90, 0 83.43, 0 68.57 M0 68.57 C1.64 53.9, -0.1 43.53, 0 22.86 M0 68.57 C-0.69 51.78, -1.26 34.68, 0 22.86 M0 22.86 C0.84 6.07, 9.26 -0.12, 22.86 0 M0 22.86 C2 9.66, 5.83 0.48, 22.86 0" stroke="#000000" stroke-width="4" fill="none"></path></g><g transform="translate(1600.8333333333358 238.0654692869012) rotate(0 157.5 22.5)"><text x="157.5" y="32" font-family="Virgil, Segoe UI Emoji" font-size="36px" fill="#000000" text-anchor="middle" style="white-space: pre;" direction="ltr">Install Git Repos</text></g><g stroke-linecap="round"><g transform="translate(1750.6983618484996 310.08927881071065) rotate(0 -6.971076844293179 92.17417986333061)"><path d="M-0.63 -0.25 C-3.21 30.34, -12.08 153.89, -14.29 184.69 M1.24 -1.42 C-1.59 29.79, -12.57 154.64, -15.18 185.77" stroke="#000000" stroke-width="4" fill="none"></path></g><g transform="translate(1750.6983618484996 310.08927881071065) rotate(0 -6.971076844293179 92.17417986333061)"><path d="M-23.39 157.01 C-21.05 169.15, -18.16 180.03, -16.03 185.92 M-22.92 157.6 C-20.31 165.15, -18.2 173.77, -15.95 186.31" stroke="#000000" stroke-width="4" fill="none"></path></g><g transform="translate(1750.6983618484996 310.08927881071065) rotate(0 -6.971076844293179 92.17417986333061)"><path d="M-2.94 158.77 C-8.73 170.1, -13.94 180.29, -16.03 185.92 M-2.48 159.36 C-5.8 166.39, -9.64 174.5, -15.95 186.31" stroke="#000000" stroke-width="4" fill="none"></path></g></g><mask></mask><g stroke-linecap="round" transform="translate(1996.6666666666688 214.85118357261547) rotate(0 275 50)"><path d="M25 0 M25 0 C202.15 -1.07, 378.9 -1.69, 525 0 M25 0 C207.99 0.77, 390.89 0.74, 525 0 M525 0 C543.33 1.97, 552 7.18, 550 25 M525 0 C540.84 -0.15, 547.99 7.43, 550 25 M550 25 C549.5 39.6, 550.01 56.1, 550 75 M550 25 C549.33 36.56, 549.76 46.82, 550 75 M550 75 C550.7 89.79, 542.66 101.95, 525 100 M550 75 C547.78 90.59, 539.6 98.95, 525 100 M525 100 C416.14 100.37, 306.35 100, 25 100 M525 100 C338.03 100.79, 152.1 101.55, 25 100 M25 100 C7.84 100.78, 1.78 90.86, 0 75 M25 100 C8.15 99.83, -0.52 93.74, 0 75 M0 75 C-0.23 62.78, 1.06 49.76, 0 25 M0 75 C-0.57 63.09, -0.15 53.02, 0 25 M0 25 C1.65 9.91, 9.32 -1.86, 25 0 M0 25 C0.37 8.01, 7.25 0.92, 25 0" stroke="#000000" stroke-width="4" fill="none"></path></g><g transform="translate(2020.1666666666688 242.35118357261547) rotate(0 251.5 22.5)"><text x="251.5" y="32" font-family="Virgil, Segoe UI Emoji" font-size="36px" fill="#000000" text-anchor="middle" style="white-space: pre;" direction="ltr">Acquire DigitalOcean Domain</text></g><g stroke-linecap="round"><g transform="translate(2261.913702890699 328.6607073821392) rotate(0 -240.55701744081466 82.70026795541018)"><path d="M0.51 0.87 C-79.71 28.27, -400.3 137.96, -480.45 165.12 M-0.69 0.28 C-81.17 27.28, -401.51 135.98, -481.62 163.41" stroke="#000000" stroke-width="4" fill="none"></path></g><g transform="translate(2261.913702890699 328.6607073821392) rotate(0 -240.55701744081466 82.70026795541018)"><path d="M-456.79 143.91 C-465.46 151.04, -476.3 158.99, -482.11 163.64 M-457.24 144.03 C-464.72 149.83, -471.52 154.55, -481.46 164.1" stroke="#000000" stroke-width="4" fill="none"></path></g><g transform="translate(2261.913702890699 328.6607073821392) rotate(0 -240.55701744081466 82.70026795541018)"><path d="M-450.18 163.33 C-461.42 163.3, -474.7 164.06, -482.11 163.64 M-450.63 163.46 C-460.05 164.1, -468.62 163.6, -481.46 164.1" stroke="#000000" stroke-width="4" fill="none"></path></g></g><mask></mask><g stroke-linecap="round" transform="translate(2611.833333333335 909.125) rotate(0 159 30.33333333333337)"><path d="M15.17 0 M15.17 0 C86.77 1.84, 160.35 2.72, 302.83 0 M15.17 0 C104.19 2.59, 192.74 1.82, 302.83 0 M302.83 0 C312.37 1.24, 317.67 6.35, 318 15.17 M302.83 0 C310.93 -0.29, 316.97 3.44, 318 15.17 M318 15.17 C319.01 24.25, 316.1 35.43, 318 45.5 M318 15.17 C318.65 21.59, 318.7 28.43, 318 45.5 M318 45.5 C318.31 57.07, 314.16 61.63, 302.83 60.67 M318 45.5 C319.57 55.56, 313.2 62.8, 302.83 60.67 M302.83 60.67 C189.4 60.91, 74.96 61.11, 15.17 60.67 M302.83 60.67 C244.62 62.23, 186.83 60.91, 15.17 60.67 M15.17 60.67 C6.32 60.94, -1.45 55.79, 0 45.5 M15.17 60.67 C6.39 58.89, -2.16 57.88, 0 45.5 M0 45.5 C-0.53 36.5, 1.02 22.17, 0 15.17 M0 45.5 C-0.67 38.86, -0.5 31.07, 0 15.17 M0 15.17 C-1.55 6.8, 3.95 0.92, 15.17 0 M0 15.17 C2.22 6.42, 5.22 -1.34, 15.17 0" stroke="#000000" stroke-width="4" fill="none"></path></g><g transform="translate(2620.333333333335 919.458333333333) rotate(0 148 22.5)"><text x="148" y="32" font-family="Virgil, Segoe UI Emoji" font-size="36px" fill="#000000" text-anchor="middle" style="white-space: pre;" direction="ltr">Gloo Mesh CRDs</text></g><g stroke-linecap="round"><g transform="translate(2504.957369835936 798.6684214686227) rotate(0 124.48973122742836 48.619710419678)"><path d="M0 0 C41.5 16.21, 207.48 81.03, 248.98 97.24 M0 0 C41.5 16.21, 207.48 81.03, 248.98 97.24" stroke="#000000" stroke-width="4" fill="none"></path></g><g transform="translate(2504.957369835936 798.6684214686227) rotate(0 124.48973122742836 48.619710419678)"><path d="M218.99 96.54 C228.83 96.77, 238.68 97, 248.98 97.24 M218.99 96.54 C229.5 96.79, 240.02 97.03, 248.98 97.24" stroke="#000000" stroke-width="4" fill="none"></path></g><g transform="translate(2504.957369835936 798.6684214686227) rotate(0 124.48973122742836 48.619710419678)"><path d="M226.45 77.43 C233.85 83.93, 241.24 90.43, 248.98 97.24 M226.45 77.43 C234.35 84.37, 242.25 91.32, 248.98 97.24" stroke="#000000" stroke-width="4" fill="none"></path></g></g><mask></mask><g stroke-linecap="round" transform="translate(1904.7451219598943 899.125) rotate(0 163.16666666666652 30.33333333333337)"><path d="M15.17 0 M15.17 0 C115.87 -1.57, 214.6 -1.63, 311.17 0 M15.17 0 C104.96 1.4, 193.94 0.9, 311.17 0 M311.17 0 C321.72 -1.08, 326.9 3.11, 326.33 15.17 M311.17 0 C322.9 -0.19, 325.41 3.81, 326.33 15.17 M326.33 15.17 C327.65 21.33, 327.85 28.28, 326.33 45.5 M326.33 15.17 C326.67 24.62, 326.95 35.7, 326.33 45.5 M326.33 45.5 C328.1 54.75, 321.05 60.73, 311.17 60.67 M326.33 45.5 C327.28 53.61, 319.78 60.49, 311.17 60.67 M311.17 60.67 C195.34 59.84, 76.82 59.01, 15.17 60.67 M311.17 60.67 C231.91 58.42, 154.59 59.45, 15.17 60.67 M15.17 60.67 C6.55 60.15, -1.1 53.92, 0 45.5 M15.17 60.67 C6.05 61.67, 0.84 54.14, 0 45.5 M0 45.5 C-0.23 35.21, -2.1 26.06, 0 15.17 M0 45.5 C-0.8 35.54, -0.36 24.34, 0 15.17 M0 15.17 C1.7 6.12, 6.15 1.88, 15.17 0 M0 15.17 C-0.29 3.54, 5.72 -1.75, 15.17 0" stroke="#000000" stroke-width="4" fill="none"></path></g><g transform="translate(1913.2451219598943 909.458333333333) rotate(0 148 22.5)"><text x="148" y="32" font-family="Virgil, Segoe UI Emoji" font-size="36px" fill="#000000" text-anchor="middle" style="white-space: pre;" direction="ltr">Gloo Mesh CRDs</text></g><g stroke-linecap="round"><g transform="translate(1885.7756047048063 792.7420486723848) rotate(0 87.65183594736743 46.280328377480885)"><path d="M0 0 C29.22 15.43, 146.09 77.13, 175.3 92.56 M0 0 C29.22 15.43, 146.09 77.13, 175.3 92.56" stroke="#000000" stroke-width="4" fill="none"></path></g><g transform="translate(1885.7756047048063 792.7420486723848) rotate(0 87.65183594736743 46.280328377480885)"><path d="M145.58 88.47 C155.29 89.81, 165 91.14, 175.3 92.56 M145.58 88.47 C154.56 89.71, 163.54 90.94, 175.3 92.56" stroke="#000000" stroke-width="4" fill="none"></path></g><g transform="translate(1885.7756047048063 792.7420486723848) rotate(0 87.65183594736743 46.280328377480885)"><path d="M155.17 70.32 C161.74 77.59, 168.32 84.85, 175.3 92.56 M155.17 70.32 C161.25 77.04, 167.33 83.76, 175.3 92.56" stroke="#000000" stroke-width="4" fill="none"></path></g></g><mask></mask><g stroke-linecap="round"><g transform="translate(2065.3838882924983 969.4743408662899) rotate(0 -55.61831214107849 113.39371468926561)"><path d="M0 0 C-18.54 37.8, -92.7 188.99, -111.24 226.79 M0 0 C-18.54 37.8, -92.7 188.99, -111.24 226.79" stroke="#000000" stroke-width="4" fill="none"></path></g><g transform="translate(2065.3838882924983 969.4743408662899) rotate(0 -55.61831214107849 113.39371468926561)"><path d="M-108.03 196.96 C-109.19 207.71, -110.34 218.46, -111.24 226.79 M-108.03 196.96 C-108.87 204.77, -109.71 212.58, -111.24 226.79" stroke="#000000" stroke-width="4" fill="none"></path></g><g transform="translate(2065.3838882924983 969.4743408662899) rotate(0 -55.61831214107849 113.39371468926561)"><path d="M-89.61 206 C-97.4 213.49, -105.2 220.98, -111.24 226.79 M-89.61 206 C-95.27 211.44, -100.93 216.88, -111.24 226.79" stroke="#000000" stroke-width="4" fill="none"></path></g></g><mask></mask><g stroke-linecap="round"><g transform="translate(2760.6519641909085 980.5882768361583) rotate(0 -81.53774629669192 111.24070150659122)"><path d="M0 0 C-27.18 37.08, -135.9 185.4, -163.08 222.48 M0 0 C-27.18 37.08, -135.9 185.4, -163.08 222.48" stroke="#000000" stroke-width="4" fill="none"></path></g><g transform="translate(2760.6519641909085 980.5882768361583) rotate(0 -81.53774629669192 111.24070150659122)"><path d="M-154.69 193.68 C-156.45 199.73, -158.21 205.78, -163.08 222.48 M-154.69 193.68 C-156.9 201.29, -159.12 208.91, -163.08 222.48" stroke="#000000" stroke-width="4" fill="none"></path></g><g transform="translate(2760.6519641909085 980.5882768361583) rotate(0 -81.53774629669192 111.24070150659122)"><path d="M-138.13 205.81 C-143.37 209.31, -148.61 212.81, -163.08 222.48 M-138.13 205.81 C-144.73 210.22, -151.32 214.62, -163.08 222.48" stroke="#000000" stroke-width="4" fill="none"></path></g></g><mask></mask><g transform="translate(33.333333333334394 564.1666666666667) rotate(0 75 22.5)"><text x="75" y="32" font-family="Virgil, Segoe UI Emoji" font-size="36px" fill="#000000" text-anchor="middle" style="white-space: pre;" direction="ltr">Phase 0</text></g><g transform="translate(35.83333333333417 777.4999999999998) rotate(0 67.5 22.5)"><text x="67.5" y="32" font-family="Virgil, Segoe UI Emoji" font-size="36px" fill="#000000" text-anchor="middle" style="white-space: pre;" direction="ltr">Phase 1</text></g><g transform="translate(33.333333333334394 1062.5) rotate(0 75 22.5)"><text x="75" y="32" font-family="Virgil, Segoe UI Emoji" font-size="36px" fill="#000000" text-anchor="middle" style="white-space: pre;" direction="ltr">Phase 2</text></g><g transform="translate(35.50000000000114 1279.166666666667) rotate(0 74.5 22.5)"><text x="74.5" y="32" font-family="Virgil, Segoe UI Emoji" font-size="36px" fill="#000000" text-anchor="middle" style="white-space: pre;" direction="ltr">Phase 3</text></g><g transform="translate(39.333333333334394 1530.8333333333333) rotate(0 74 22.5)"><text x="74" y="32" font-family="Virgil, Segoe UI Emoji" font-size="36px" fill="#000000" text-anchor="middle" style="white-space: pre;" direction="ltr">Phase 4</text></g><g stroke-linecap="round"><g transform="translate(2410.000000000001 1004.9999999999999) rotate(0 2.5 12.5)"><path d="M0 0 C0.83 4.17, 4.17 20.83, 5 25 M0 0 C0.83 4.17, 4.17 20.83, 5 25" stroke="#000000" stroke-width="4" fill="none"></path></g><g transform="translate(2410.000000000001 1004.9999999999999) rotate(0 2.5 12.5)"><path d="M-1.62 14.11 C-0.25 16.37, 1.13 18.64, 5 25 M-1.62 14.11 C0.38 17.41, 2.39 20.7, 5 25" stroke="#000000" stroke-width="4" fill="none"></path></g><g transform="translate(2410.000000000001 1004.9999999999999) rotate(0 2.5 12.5)"><path d="M6.93 12.4 C6.53 15.02, 6.13 17.64, 5 25 M6.93 12.4 C6.34 16.21, 5.76 20.03, 5 25" stroke="#000000" stroke-width="4" fill="none"></path></g></g><mask></mask><g stroke-linecap="round" transform="translate(1199.4379817487006 909.8949559323553) rotate(0 159 30.33333333333337)"><path d="M15.17 0 M15.17 0 C122.73 0.76, 232.62 2.02, 302.83 0 M15.17 0 C85.11 1.63, 153.92 2.17, 302.83 0 M302.83 0 C314.65 0.97, 319.44 3.82, 318 15.17 M302.83 0 C311.51 -0.22, 316.19 4.14, 318 15.17 M318 15.17 C319.16 24.04, 317.44 33.84, 318 45.5 M318 15.17 C318.53 23.15, 318.59 32.36, 318 45.5 M318 45.5 C316.72 55.83, 311.64 61.25, 302.83 60.67 M318 45.5 C316.58 57.51, 312.11 60.63, 302.83 60.67 M302.83 60.67 C198.39 62.15, 92.72 60.31, 15.17 60.67 M302.83 60.67 C221.37 59.54, 138.87 59.84, 15.17 60.67 M15.17 60.67 C5.55 61.61, -1.69 56.55, 0 45.5 M15.17 60.67 C4.96 61.71, -0.9 56.57, 0 45.5 M0 45.5 C-0.09 33.97, 0.77 24.64, 0 15.17 M0 45.5 C0.31 34.29, -0.38 24.74, 0 15.17 M0 15.17 C-0.18 5.62, 5.17 -0.79, 15.17 0 M0 15.17 C-1.04 6.08, 3.01 -1.08, 15.17 0" stroke="#000000" stroke-width="4" fill="none"></path></g><g transform="translate(1207.9379817487006 920.2282892656885) rotate(0 148 22.5)"><text x="148" y="32" font-family="Virgil, Segoe UI Emoji" font-size="36px" fill="#000000" text-anchor="middle" style="white-space: pre;" direction="ltr">Gloo Mesh CRDs</text></g><g stroke-linecap="round"><g transform="translate(1092.562018251302 799.4383774009782) rotate(0 124.48973122742836 48.619710419678)"><path d="M0 0 C41.5 16.21, 207.48 81.03, 248.98 97.24 M0 0 C41.5 16.21, 207.48 81.03, 248.98 97.24" stroke="#000000" stroke-width="4" fill="none"></path></g><g transform="translate(1092.562018251302 799.4383774009782) rotate(0 124.48973122742836 48.619710419678)"><path d="M218.99 96.54 C225.95 96.7, 232.92 96.87, 248.98 97.24 M218.99 96.54 C230.4 96.81, 241.8 97.07, 248.98 97.24" stroke="#000000" stroke-width="4" fill="none"></path></g><g transform="translate(1092.562018251302 799.4383774009782) rotate(0 124.48973122742836 48.619710419678)"><path d="M226.45 77.43 C231.69 82.03, 236.92 86.63, 248.98 97.24 M226.45 77.43 C235.02 84.96, 243.59 92.5, 248.98 97.24" stroke="#000000" stroke-width="4" fill="none"></path></g></g><mask></mask><g stroke-linecap="round"><g transform="translate(1355.6183121410793 981.6062853107343) rotate(0 -173.11831214107855 98.39371468926561)"><path d="M0 0 C-19.83 24.18, -61.25 112.26, -118.95 145.06 C-176.66 177.86, -308.36 188.17, -346.24 196.79 M0 0 C-19.83 24.18, -61.25 112.26, -118.95 145.06 C-176.66 177.86, -308.36 188.17, -346.24 196.79" stroke="#000000" stroke-width="4" fill="none"></path></g><g transform="translate(1355.6183121410793 981.6062853107343) rotate(0 -173.11831214107855 98.39371468926561)"><path d="M-320.02 182.2 C-327.7 186.48, -335.39 190.75, -346.24 196.79 M-320.02 182.2 C-326.44 185.78, -332.86 189.35, -346.24 196.79" stroke="#000000" stroke-width="4" fill="none"></path></g><g transform="translate(1355.6183121410793 981.6062853107343) rotate(0 -173.11831214107855 98.39371468926561)"><path d="M-316.78 202.47 C-325.41 200.8, -334.05 199.14, -346.24 196.79 M-316.78 202.47 C-323.99 201.08, -331.21 199.69, -346.24 196.79" stroke="#000000" stroke-width="4" fill="none"></path></g></g><mask></mask><g stroke-linecap="round" transform="translate(866.8333333333344 1024.9999999999995) rotate(0 151.5 50)"><path d="M25 0 M25 0 C79.89 0.85, 137.94 -0.58, 278 0 M25 0 C101.51 1.87, 178.83 1.37, 278 0 M278 0 C294.79 1.04, 302.96 9.03, 303 25 M278 0 C295.86 0.15, 301.61 8.81, 303 25 M303 25 C301.88 41.85, 303.07 57.06, 303 75 M303 25 C302.89 38.67, 303.29 51.81, 303 75 M303 75 C301.1 91.26, 296.27 101.93, 278 100 M303 75 C301.72 89.56, 294.97 101.31, 278 100 M278 100 C196.81 101.65, 117.59 98.74, 25 100 M278 100 C215.41 99.21, 152.36 98.44, 25 100 M25 100 C9.04 99.19, -1.49 90.95, 0 75 M25 100 C7.51 99.59, 0.47 92.41, 0 75 M0 75 C1.5 60.28, -0.45 43.71, 0 25 M0 75 C0.42 55.74, -0.29 36.86, 0 25 M0 25 C0.3 6.88, 7.95 0.55, 25 0 M0 25 C-1.8 6.84, 10.04 0.75, 25 0" stroke="#000000" stroke-width="4" fill="none"></path></g><g transform="translate(933.8333333333344 1024.9999999999995) rotate(0 84.5 45)"><text x="84.5" y="32" font-family="Virgil, Segoe UI Emoji" font-size="36px" fill="#000000" text-anchor="middle" style="white-space: pre;" direction="ltr">External </text><text x="84.5" y="77" font-family="Virgil, Segoe UI Emoji" font-size="36px" fill="#000000" text-anchor="middle" style="white-space: pre;" direction="ltr">Secrets</text></g><g stroke-linecap="round"><g transform="translate(1017.6183261191354 1002.6518754569128) rotate(0 -0.28104669744146804 14.650606598370075)"><path d="M0.37 0.48 C0.27 5.34, -0.07 23.79, -0.3 28.47 M-0.89 -0.32 C-1.09 4.75, -0.56 24.65, -0.68 29.62" stroke="#000000" stroke-width="4" fill="none"></path></g><g transform="translate(1017.6183261191354 1002.6518754569128) rotate(0 -0.28104669744146804 14.650606598370075)"><path d="M-5.15 17.23 C-5.05 20.81, -3.32 25.41, 0.76 28.99 M-5 15.69 C-4.29 17.99, -3.76 21.84, -1.22 30.18" stroke="#000000" stroke-width="4" fill="none"></path></g><g transform="translate(1017.6183261191354 1002.6518754569128) rotate(0 -0.28104669744146804 14.650606598370075)"><path d="M4.84 17.19 C1.68 20.81, 0.13 25.43, 0.76 28.99 M4.99 15.65 C3.71 17.97, 2.24 21.83, -1.22 30.18" stroke="#000000" stroke-width="4" fill="none"></path></g></g><mask></mask><g stroke-linecap="round" transform="translate(197.84931988068206 884.3113116490492) rotate(0 151.5 34)"><path d="M17 0 M17 0 C114.55 -1.9, 211.59 -2.01, 286 0 M17 0 C98.72 -1.6, 180.14 -2.01, 286 0 M286 0 C296.39 0.96, 303.08 4.42, 303 17 M286 0 C296.9 -2.28, 303.72 4.34, 303 17 M303 17 C301.58 29.45, 301.72 40.78, 303 51 M303 17 C303.25 29.55, 302.24 44.14, 303 51 M303 51 C304.65 61.46, 298.45 69.18, 286 68 M303 51 C302.01 64.32, 296.21 68.95, 286 68 M286 68 C202.36 67.3, 120.35 65, 17 68 M286 68 C213.68 66.54, 142.36 67.84, 17 68 M17 68 C5.12 68.38, -0.83 62.7, 0 51 M17 68 C5.7 68.11, 0.7 61.97, 0 51 M0 51 C0.2 42.51, 2.08 35.35, 0 17 M0 51 C-0.55 38.33, -0.68 27.66, 0 17 M0 17 C0.46 4.61, 7.33 -1.31, 17 0 M0 17 C-0.65 3.78, 6.34 0.23, 17 0" stroke="#000000" stroke-width="4" fill="none"></path></g><g transform="translate(228.84931988068206 895.8113116490492) rotate(0 120.5 22.5)"><text x="120.5" y="32" font-family="Virgil, Segoe UI Emoji" font-size="36px" fill="#000000" text-anchor="middle" style="white-space: pre;" direction="ltr">Cert-Manager</text></g><g stroke-linecap="round"><g transform="translate(769.7253563978361 795.1806619315353) rotate(0 -204.82029226149382 38.96387155422292)"><path d="M0.12 1.01 C-68.21 13.54, -340.65 63.23, -408.83 75.88 M-1.28 0.49 C-69.87 13.17, -341.68 64.99, -409.76 77.44" stroke="#000000" stroke-width="4" fill="none"></path></g><g transform="translate(769.7253563978361 795.1806619315353) rotate(0 -204.82029226149382 38.96387155422292)"><path d="M-382.26 62.22 C-394.04 68.1, -402.55 74.93, -408.99 77.89 M-383.9 61.54 C-391.6 65.68, -398.51 70.48, -409.09 76.97" stroke="#000000" stroke-width="4" fill="none"></path></g><g transform="translate(769.7253563978361 795.1806619315353) rotate(0 -204.82029226149382 38.96387155422292)"><path d="M-378.48 82.39 C-391.88 80.27, -401.89 79.08, -408.99 77.89 M-380.12 81.71 C-388.81 80.09, -396.8 79.09, -409.09 76.97" stroke="#000000" stroke-width="4" fill="none"></path></g></g><mask></mask><g stroke-linecap="round"><g transform="translate(349.7253563978362 960.1806619315353) rotate(0 260.01849010145344 112.08814843447848)"><path d="M0.17 0.59 C48.95 21.86, 205.98 91.41, 292.82 128.55 C379.66 165.68, 483.06 207.58, 521.23 223.41 M-1.19 -0.14 C47.94 20.67, 208.17 89.22, 295.12 126.63 C382.07 164.04, 482.62 208.05, 520.51 224.32" stroke="#000000" stroke-width="4" fill="none"></path></g><g transform="translate(349.7253563978362 960.1806619315353) rotate(0 260.01849010145344 112.08814843447848)"><path d="M491.55 221.22 C500.7 223.19, 508.2 224.78, 519.38 222.97 M489.68 222.92 C498.62 222.95, 504.35 222.29, 521.38 223.72" stroke="#000000" stroke-width="4" fill="none"></path></g><g transform="translate(349.7253563978362 960.1806619315353) rotate(0 260.01849010145344 112.08814843447848)"><path d="M499.71 202.38 C506.42 210.32, 511.36 217.85, 519.38 222.97 M497.84 204.09 C504.81 208.81, 508.53 212.81, 521.38 223.72" stroke="#000000" stroke-width="4" fill="none"></path></g></g><mask></mask></svg>